<svg width="20" height="20" viewBox="0 0 20 20" fill="none" xmlns="http://www.w3.org/2000/svg">
<path d="M9.72222 2.32722e-05C4.05555 2.32722e-05 0 4.48889 0 9.99998C0 15.5111 4.05555 19.9999 9.72222 19.9999C11.3971 20.0061 13.0484 19.606 14.5347 18.8338C16.0209 18.0617 17.2977 16.9406 18.2556 15.5666L15.3778 13.8777C14.1556 15.5444 12.2 16.6666 10 16.6666C6.33333 16.6666 3.33333 13.5666 3.33333 9.99998C3.33333 6.43333 6.33333 3.33334 10 3.33334C12.1889 3.33334 14.1333 4.44445 15.3556 6.09999L13.3333 7.77776L20 9.99998V2.22223L17.9 3.97778C16.9297 2.7359 15.6886 1.732 14.2714 1.04264C12.8542 0.353287 11.2982 -0.00331854 9.72222 2.32722e-05Z" fill="black"/>
</svg>
