<svg width="290" height="425" viewBox="0 0 290 425" fill="none" xmlns="http://www.w3.org/2000/svg">
<rect x="90.5" y="229.5" width="20" height="20" fill="#F4D03F" stroke="black"/>
<rect x="90.5" y="209.5" width="20" height="20" fill="#F4D03F" stroke="black"/>
<rect x="110.5" y="229.5" width="20" height="20" fill="#F4D03F" stroke="black"/>
<rect x="110.5" y="209.5" width="20" height="20" fill="#F4D03F" stroke="black"/>
<rect x="217.5" y="31.5" width="20" height="20" fill="#CD6155" stroke="black"/>
<rect x="237.5" y="31.5" width="20" height="20" fill="#CD6155" stroke="black"/>
<rect x="237.5" y="11.5" width="20" height="20" fill="#CD6155" stroke="black"/>
<rect x="257.5" y="11.5" width="20" height="20" fill="#CD6155" stroke="black"/>
<rect x="229.5" y="305.5" width="20" height="20" fill="#E59866" stroke="black"/>
<rect x="249.5" y="305.5" width="20" height="20" fill="#E59866" stroke="black"/>
<rect x="269.5" y="305.5" width="20" height="20" fill="#E59866" stroke="black"/>
<rect x="269.5" y="285.5" width="20" height="20" fill="#E59866" stroke="black"/>
<rect x="-0.5" y="0.5" width="20" height="20" transform="matrix(-1 0 0 1 60 404)" fill="#45B39D" stroke="black"/>
<rect x="-0.5" y="0.5" width="20" height="20" transform="matrix(-1 0 0 1 40 404)" fill="#45B39D" stroke="black"/>
<rect x="-0.5" y="0.5" width="20" height="20" transform="matrix(-1 0 0 1 20 404)" fill="#45B39D" stroke="black"/>
<rect x="-0.5" y="0.5" width="20" height="20" transform="matrix(-1 0 0 1 20 384)" fill="#45B39D" stroke="black"/>
<rect x="157.5" y="306.5" width="20" height="20" fill="#A569BD" stroke="black"/>
<rect x="177.5" y="306.5" width="20" height="20" fill="#A569BD" stroke="black"/>
<rect x="197.5" y="306.5" width="20" height="20" fill="#A569BD" stroke="black"/>
<rect x="177.5" y="286.5" width="20" height="20" fill="#A569BD" stroke="black"/>
<rect x="75.5" y="343.5" width="20" height="20" fill="#5DADE2" stroke="black"/>
<rect x="95.5" y="343.5" width="20" height="20" fill="#5DADE2" stroke="black"/>
<rect x="115.5" y="343.5" width="20" height="20" fill="#5DADE2" stroke="black"/>
<rect x="135.5" y="343.5" width="20" height="20" fill="#5DADE2" stroke="black"/>
<rect x="50.5" y="79.5" width="20" height="20" fill="#CD6155" stroke="black"/>
<rect x="70.5" y="79.5" width="20" height="20" fill="#CD6155" stroke="black"/>
<rect x="70.5" y="59.5" width="20" height="20" fill="#CD6155" stroke="black"/>
<rect x="90.5" y="59.5" width="20" height="20" fill="#CD6155" stroke="black"/>
<rect x="0.5" y="-0.5" width="20" height="20" transform="matrix(1 0 0 -1 128 78)" fill="#AEB6BF" stroke="black"/>
<rect x="0.5" y="-0.5" width="20" height="20" transform="matrix(1 0 0 -1 148 78)" fill="#AEB6BF" stroke="black"/>
<rect x="0.5" y="-0.5" width="20" height="20" transform="matrix(1 0 0 -1 148 98)" fill="#AEB6BF" stroke="black"/>
<rect x="0.5" y="-0.5" width="20" height="20" transform="matrix(1 0 0 -1 168 98)" fill="#AEB6BF" stroke="black"/>
<rect x="197.5" y="134.5" width="20" height="20" fill="#E59866" stroke="black"/>
<rect x="217.5" y="134.5" width="20" height="20" fill="#E59866" stroke="black"/>
<rect x="237.5" y="134.5" width="20" height="20" fill="#E59866" stroke="black"/>
<rect x="237.5" y="114.5" width="20" height="20" fill="#E59866" stroke="black"/>
<rect x="-0.5" y="0.5" width="20" height="20" transform="matrix(-1 0 0 1 141 159)" fill="#45B39D" stroke="black"/>
<rect x="-0.5" y="0.5" width="20" height="20" transform="matrix(-1 0 0 1 121 159)" fill="#45B39D" stroke="black"/>
<rect x="-0.5" y="0.5" width="20" height="20" transform="matrix(-1 0 0 1 101 159)" fill="#45B39D" stroke="black"/>
<rect x="-0.5" y="0.5" width="20" height="20" transform="matrix(-1 0 0 1 101 139)" fill="#45B39D" stroke="black"/>
<rect x="218.5" y="209.5" width="20" height="20" fill="#A569BD" stroke="black"/>
<rect x="238.5" y="209.5" width="20" height="20" fill="#A569BD" stroke="black"/>
<rect x="258.5" y="209.5" width="20" height="20" fill="#A569BD" stroke="black"/>
<rect x="238.5" y="189.5" width="20" height="20" fill="#A569BD" stroke="black"/>
<rect x="76.5" y="0.5" width="20" height="20" fill="#5DADE2" stroke="black"/>
<rect x="96.5" y="0.5" width="20" height="20" fill="#5DADE2" stroke="black"/>
<rect x="116.5" y="0.5" width="20" height="20" fill="#5DADE2" stroke="black"/>
<rect x="136.5" y="0.5" width="20" height="20" fill="#5DADE2" stroke="black"/>
</svg>
